<svg xmlns="http://www.w3.org/2000/svg" width="663" height="483" viewBox="0 0 82.22 59.85" shape-rendering="geometricPrecision" text-rendering="geometricPrecision" image-rendering="optimizeQuality" fill-rule="evenodd" clip-rule="evenodd"><defs><style>.fil3{fill:#fff;fill-rule:nonzero}</style></defs><g id="Слой_x0020_1"><g id="_1672773522496" fill="#fff"><circle cx="23.83" cy="25.14" r="7.86"/><path d="M66.26 25.14a7.861 7.861 0 0 1-15.72 0c0-4.58-1.78-8.74-4.68-11.83-.27-.3-.55-.6-.84-.88a17.785 17.785 0 0 0-12.55-5.16c-4.93 0-9.4 2-12.63 5.24-.41.4-.79.82-1.16 1.26C22.84 5.6 31.32 0 41.11 0c13.82 0 25.03 11.15 25.14 24.94 0 .07.01.13.01.2z"/><path d="M48.97 25.14v-.2c-.11-9.02-7.45-16.3-16.5-16.3-6.79 0-12.62 4.1-15.15 9.96a9.208 9.208 0 0 1 13.03.02c.59.58 1.1 1.25 1.51 1.98a8.613 8.613 0 0 1 1.39 4.54h.01c0 4.34 3.51 7.86 7.85 7.86s7.86-3.52 7.86-7.86z"/></g><path class="fil3" d="M10.14 54.85c0-.7-.25-1.24-.74-1.62-.5-.38-1.4-.77-2.69-1.19-1.29-.42-2.32-.84-3.07-1.24C1.59 49.69.56 48.19.56 46.31c0-.98.28-1.85.83-2.62.54-.77 1.34-1.36 2.37-1.8 1.03-.43 2.19-.64 3.47-.64 1.3 0 2.45.23 3.46.7 1.01.47 1.79 1.13 2.35 1.98.56.86.84 1.83.84 2.91h-3.72c0-.82-.27-1.46-.79-1.93-.52-.45-1.25-.68-2.2-.68-.91 0-1.62.19-2.13.57-.5.39-.75.9-.75 1.53 0 .59.3 1.08.89 1.48.59.4 1.46.77 2.61 1.12 2.12.64 3.67 1.43 4.64 2.37.97.95 1.45 2.12 1.45 3.53 0 1.57-.59 2.8-1.78 3.69-1.18.89-2.78 1.33-4.78 1.33-1.39 0-2.66-.25-3.8-.76-1.14-.51-2.02-1.21-2.62-2.1-.6-.88-.9-1.91-.9-3.08h3.74c0 1.99 1.19 2.99 3.58 2.99.88 0 1.58-.18 2.08-.54.49-.36.74-.86.74-1.51z"/><path id="1" class="fil3" d="M30.09 41.5v11.93c0 1.98-.62 3.54-1.85 4.7-1.24 1.15-2.94 1.72-5.08 1.72-2.11 0-3.79-.56-5.04-1.68-1.24-1.11-1.87-2.65-1.9-4.61V41.5h3.73v11.94c0 1.19.28 2.05.85 2.6.57.54 1.36.81 2.36.81 2.09 0 3.16-1.1 3.19-3.3V41.5h3.74z"/><path id="2" class="fil3" d="M47.86 59.6h-3.73l-7.25-11.91V59.6h-3.73V41.5h3.73l7.27 11.94V41.5h3.71z"/><path id="3" class="fil3" d="M51.12 59.6V41.5h6.34c2.19 0 3.86.42 4.99 1.27 1.14.84 1.71 2.07 1.71 3.7 0 .88-.23 1.67-.69 2.34-.45.68-1.09 1.17-1.9 1.49.93.23 1.66.7 2.19 1.4.54.7.8 1.57.8 2.58 0 1.74-.55 3.06-1.66 3.95-1.11.9-2.69 1.35-4.74 1.37h-7.04zm3.73-7.87v4.87h3.19c.88 0 1.57-.21 2.06-.63.49-.41.74-.99.74-1.72 0-1.65-.86-2.49-2.57-2.52h-3.42zm0-2.64h2.76c1.88-.04 2.82-.78 2.82-2.25 0-.82-.24-1.41-.72-1.77-.47-.36-1.22-.54-2.25-.54h-2.61v4.56z"/><path id="4" class="fil3" d="M82.22 50.96c0 1.78-.31 3.35-.94 4.69-.63 1.34-1.53 2.38-2.7 3.11-1.18.73-2.52 1.09-4.04 1.09-1.5 0-2.84-.36-4.01-1.08-1.18-.72-2.09-1.75-2.74-3.09-.64-1.34-.97-2.88-.98-4.62v-.89c0-1.79.32-3.36.97-4.71.64-1.36 1.54-2.4 2.72-3.12 1.17-.73 2.51-1.09 4.02-1.09 1.51 0 2.84.36 4.02 1.09 1.17.72 2.08 1.76 2.72 3.12.64 1.35.96 2.92.96 4.69v.81zm-3.77-.82c0-1.9-.34-3.34-1.02-4.33-.69-.99-1.65-1.48-2.91-1.48-1.25 0-2.22.49-2.9 1.46-.68.98-1.02 2.41-1.03 4.29v.88c0 1.85.34 3.29 1.02 4.31.68 1.02 1.66 1.53 2.93 1.53 1.25 0 2.21-.49 2.89-1.48.67-.98 1.01-2.41 1.02-4.29v-.89z"/></g></svg>