<?xml version="1.0" encoding="UTF-8"?>
<!DOCTYPE svg PUBLIC "-//W3C//DTD SVG 1.1//EN" "http://www.w3.org/Graphics/SVG/1.1/DTD/svg11.dtd">
<!-- Creator: CorelDRAW 2017 -->
<svg xmlns="http://www.w3.org/2000/svg" xml:space="preserve" width="663px" height="483px" version="1.1" style="shape-rendering:geometricPrecision; text-rendering:geometricPrecision; image-rendering:optimizeQuality; fill-rule:evenodd; clip-rule:evenodd"
viewBox="0 0 82.22 59.85"
 xmlns:xlink="http://www.w3.org/1999/xlink">
 <defs>
  <style type="text/css">
   <![CDATA[
    .fil0 {fill:#FFFFFF}
    .fil2 {fill:#FFFFFF}
    .fil1 {fill:#FFFFFF}
    .fil3 {fill:#FFFFFF;fill-rule:nonzero}
   ]]>
  </style>
 </defs>
 <g id="Слой_x0020_1">
  <metadata id="CorelCorpID_0Corel-Layer"/>
  <g id="_1672773522496">
   <circle class="fil0" cx="23.83" cy="25.14" r="7.86"/>
   <path class="fil1" d="M66.26 25.14c0,4.34 -3.52,7.86 -7.86,7.86 -4.34,0 -7.86,-3.52 -7.86,-7.86 0,-4.58 -1.78,-8.74 -4.68,-11.83 -0.27,-0.3 -0.55,-0.6 -0.84,-0.88 -3.22,-3.19 -7.66,-5.16 -12.55,-5.16 -4.93,0 -9.4,2 -12.63,5.24 -0.41,0.4 -0.79,0.82 -1.16,1.26 4.16,-8.17 12.64,-13.77 22.43,-13.77 13.82,0 25.03,11.15 25.14,24.94 0,0.07 0.01,0.13 0.01,0.2z"/>
   <path class="fil2" d="M48.97 25.14c0,-0.07 0,-0.13 0,-0.2 -0.11,-9.02 -7.45,-16.3 -16.5,-16.3 -6.79,0 -12.62,4.1 -15.15,9.96 1.67,-1.66 3.97,-2.69 6.51,-2.69 2.55,0 4.85,1.04 6.52,2.71 0.59,0.58 1.1,1.25 1.51,1.98 0.85,1.31 1.36,2.87 1.39,4.54l0.01 0c0,4.34 3.51,7.86 7.85,7.86 4.34,0 7.86,-3.52 7.86,-7.86z"/>
  </g>
  <path class="fil3" d="M10.14 54.85c0,-0.7 -0.25,-1.24 -0.74,-1.62 -0.5,-0.38 -1.4,-0.77 -2.69,-1.19 -1.29,-0.42 -2.32,-0.84 -3.07,-1.24 -2.05,-1.11 -3.08,-2.61 -3.08,-4.49 0,-0.98 0.28,-1.85 0.83,-2.62 0.54,-0.77 1.34,-1.36 2.37,-1.8 1.03,-0.43 2.19,-0.64 3.47,-0.64 1.3,0 2.45,0.23 3.46,0.7 1.01,0.47 1.79,1.13 2.35,1.98 0.56,0.86 0.84,1.83 0.84,2.91l-3.72 0c0,-0.82 -0.27,-1.46 -0.79,-1.93 -0.52,-0.45 -1.25,-0.68 -2.2,-0.68 -0.91,0 -1.62,0.19 -2.13,0.57 -0.5,0.39 -0.75,0.9 -0.75,1.53 0,0.59 0.3,1.08 0.89,1.48 0.59,0.4 1.46,0.77 2.61,1.12 2.12,0.64 3.67,1.43 4.64,2.37 0.97,0.95 1.45,2.12 1.45,3.53 0,1.57 -0.59,2.8 -1.78,3.69 -1.18,0.89 -2.78,1.33 -4.78,1.33 -1.39,0 -2.66,-0.25 -3.8,-0.76 -1.14,-0.51 -2.02,-1.21 -2.62,-2.1 -0.6,-0.88 -0.9,-1.91 -0.9,-3.08l3.74 0c0,1.99 1.19,2.99 3.58,2.99 0.88,0 1.58,-0.18 2.08,-0.54 0.49,-0.36 0.74,-0.86 0.74,-1.51z"/>
  <path id="1" class="fil3" d="M30.09 41.5l0 11.93c0,1.98 -0.62,3.54 -1.85,4.7 -1.24,1.15 -2.94,1.72 -5.08,1.72 -2.11,0 -3.79,-0.56 -5.04,-1.68 -1.24,-1.11 -1.87,-2.65 -1.9,-4.61l0 -12.06 3.73 0 0 11.94c0,1.19 0.28,2.05 0.85,2.6 0.57,0.54 1.36,0.81 2.36,0.81 2.09,0 3.16,-1.1 3.19,-3.3l0 -12.05 3.74 0z"/>
  <polygon id="2" class="fil3" points="47.86,59.6 44.13,59.6 36.88,47.69 36.88,59.6 33.15,59.6 33.15,41.5 36.88,41.5 44.15,53.44 44.15,41.5 47.86,41.5 "/>
  <path id="3" class="fil3" d="M51.12 59.6l0 -18.1 6.34 0c2.19,0 3.86,0.42 4.99,1.27 1.14,0.84 1.71,2.07 1.71,3.7 0,0.88 -0.23,1.67 -0.69,2.34 -0.45,0.68 -1.09,1.17 -1.9,1.49 0.93,0.23 1.66,0.7 2.19,1.4 0.54,0.7 0.8,1.57 0.8,2.58 0,1.74 -0.55,3.06 -1.66,3.95 -1.11,0.9 -2.69,1.35 -4.74,1.37l-7.04 0zm3.73 -7.87l0 4.87 3.19 0c0.88,0 1.57,-0.21 2.06,-0.63 0.49,-0.41 0.74,-0.99 0.74,-1.72 0,-1.65 -0.86,-2.49 -2.57,-2.52l-3.42 0zm0 -2.64l2.76 0c1.88,-0.04 2.82,-0.78 2.82,-2.25 0,-0.82 -0.24,-1.41 -0.72,-1.77 -0.47,-0.36 -1.22,-0.54 -2.25,-0.54l-2.61 0 0 4.56z"/>
  <path id="4" class="fil3" d="M82.22 50.96c0,1.78 -0.31,3.35 -0.94,4.69 -0.63,1.34 -1.53,2.38 -2.7,3.11 -1.18,0.73 -2.52,1.09 -4.04,1.09 -1.5,0 -2.84,-0.36 -4.01,-1.08 -1.18,-0.72 -2.09,-1.75 -2.74,-3.09 -0.64,-1.34 -0.97,-2.88 -0.98,-4.62l0 -0.89c0,-1.79 0.32,-3.36 0.97,-4.71 0.64,-1.36 1.54,-2.4 2.72,-3.12 1.17,-0.73 2.51,-1.09 4.02,-1.09 1.51,0 2.84,0.36 4.02,1.09 1.17,0.72 2.08,1.76 2.72,3.12 0.64,1.35 0.96,2.92 0.96,4.69l0 0.81zm-3.77 -0.82c0,-1.9 -0.34,-3.34 -1.02,-4.33 -0.69,-0.99 -1.65,-1.48 -2.91,-1.48 -1.25,0 -2.22,0.49 -2.9,1.46 -0.68,0.98 -1.02,2.41 -1.03,4.29l0 0.88c0,1.85 0.34,3.29 1.02,4.31 0.68,1.02 1.66,1.53 2.93,1.53 1.25,0 2.21,-0.49 2.89,-1.48 0.67,-0.98 1.01,-2.41 1.02,-4.29l0 -0.89z"/>
 </g>
</svg>
